<mxfile host="app.diagrams.net" agent="Mozilla/5.0 (Macintosh; Intel Mac OS X 10_15_7) AppleWebKit/537.36 (KHTML, like Gecko) Chrome/131.0.0.0 Safari/537.36" version="24.9.0">
  <diagram name="Page-1" id="BM3GI1OKAAX-6J-uH_CH">
    <mxGraphModel dx="954" dy="605" grid="1" gridSize="10" guides="1" tooltips="1" connect="1" arrows="1" fold="1" page="1" pageScale="1" pageWidth="850" pageHeight="1100" math="0" shadow="0">
      <root>
        <mxCell id="0" />
        <mxCell id="1" parent="0" />
        <mxCell id="yOSe1C2ClAY5vTmFZUbN-1" value="&lt;meta charset=&quot;utf-8&quot;&gt;Amazon S3 (Source)" style="rounded=0;whiteSpace=wrap;html=1;" vertex="1" parent="1">
          <mxGeometry x="270" y="190" width="120" height="60" as="geometry" />
        </mxCell>
        <mxCell id="yOSe1C2ClAY5vTmFZUbN-2" value="start" style="ellipse;whiteSpace=wrap;html=1;aspect=fixed;" vertex="1" parent="1">
          <mxGeometry x="280" y="50" width="80" height="80" as="geometry" />
        </mxCell>
        <mxCell id="yOSe1C2ClAY5vTmFZUbN-3" value="" style="endArrow=classic;html=1;rounded=0;exitX=0.5;exitY=1;exitDx=0;exitDy=0;entryX=0.417;entryY=0.067;entryDx=0;entryDy=0;entryPerimeter=0;" edge="1" parent="1" source="yOSe1C2ClAY5vTmFZUbN-2" target="yOSe1C2ClAY5vTmFZUbN-1">
          <mxGeometry width="50" height="50" relative="1" as="geometry">
            <mxPoint x="400" y="340" as="sourcePoint" />
            <mxPoint x="450" y="290" as="targetPoint" />
          </mxGeometry>
        </mxCell>
        <mxCell id="yOSe1C2ClAY5vTmFZUbN-4" value="AWS Lambda" style="rounded=0;whiteSpace=wrap;html=1;" vertex="1" parent="1">
          <mxGeometry x="270" y="360" width="120" height="60" as="geometry" />
        </mxCell>
        <mxCell id="yOSe1C2ClAY5vTmFZUbN-6" value="Original image file uploaded by the use" style="shape=note;size=20;whiteSpace=wrap;html=1;" vertex="1" parent="1">
          <mxGeometry x="470" y="30" width="100" height="100" as="geometry" />
        </mxCell>
        <mxCell id="yOSe1C2ClAY5vTmFZUbN-7" style="edgeStyle=orthogonalEdgeStyle;rounded=0;orthogonalLoop=1;jettySize=auto;html=1;entryX=0.892;entryY=0.017;entryDx=0;entryDy=0;entryPerimeter=0;" edge="1" parent="1" source="yOSe1C2ClAY5vTmFZUbN-6" target="yOSe1C2ClAY5vTmFZUbN-1">
          <mxGeometry relative="1" as="geometry" />
        </mxCell>
        <mxCell id="yOSe1C2ClAY5vTmFZUbN-8" value="" style="endArrow=classic;html=1;rounded=0;exitX=0.392;exitY=1;exitDx=0;exitDy=0;exitPerimeter=0;" edge="1" parent="1" source="yOSe1C2ClAY5vTmFZUbN-1">
          <mxGeometry width="50" height="50" relative="1" as="geometry">
            <mxPoint x="400" y="340" as="sourcePoint" />
            <mxPoint x="317" y="360" as="targetPoint" />
          </mxGeometry>
        </mxCell>
        <mxCell id="yOSe1C2ClAY5vTmFZUbN-9" value="Notification from S3 and the original image file" style="shape=note;size=20;whiteSpace=wrap;html=1;" vertex="1" parent="1">
          <mxGeometry x="500" y="220" width="120" height="100" as="geometry" />
        </mxCell>
        <mxCell id="yOSe1C2ClAY5vTmFZUbN-10" style="edgeStyle=orthogonalEdgeStyle;rounded=0;orthogonalLoop=1;jettySize=auto;html=1;entryX=0.675;entryY=0.033;entryDx=0;entryDy=0;entryPerimeter=0;" edge="1" parent="1" source="yOSe1C2ClAY5vTmFZUbN-9" target="yOSe1C2ClAY5vTmFZUbN-4">
          <mxGeometry relative="1" as="geometry" />
        </mxCell>
        <mxCell id="yOSe1C2ClAY5vTmFZUbN-11" value="Resizes the image." style="rounded=0;whiteSpace=wrap;html=1;" vertex="1" parent="1">
          <mxGeometry x="260" y="510" width="120" height="60" as="geometry" />
        </mxCell>
        <mxCell id="yOSe1C2ClAY5vTmFZUbN-12" value="" style="endArrow=classic;html=1;rounded=0;exitX=0.5;exitY=1;exitDx=0;exitDy=0;" edge="1" parent="1" source="yOSe1C2ClAY5vTmFZUbN-4">
          <mxGeometry width="50" height="50" relative="1" as="geometry">
            <mxPoint x="400" y="440" as="sourcePoint" />
            <mxPoint x="330" y="510" as="targetPoint" />
          </mxGeometry>
        </mxCell>
        <mxCell id="yOSe1C2ClAY5vTmFZUbN-13" value="Amazon S3 (Target)" style="rounded=0;whiteSpace=wrap;html=1;" vertex="1" parent="1">
          <mxGeometry x="280" y="660" width="120" height="60" as="geometry" />
        </mxCell>
        <mxCell id="yOSe1C2ClAY5vTmFZUbN-14" value="" style="endArrow=classic;html=1;rounded=0;exitX=0.5;exitY=1;exitDx=0;exitDy=0;entryX=0.325;entryY=0.067;entryDx=0;entryDy=0;entryPerimeter=0;" edge="1" parent="1" source="yOSe1C2ClAY5vTmFZUbN-11" target="yOSe1C2ClAY5vTmFZUbN-13">
          <mxGeometry width="50" height="50" relative="1" as="geometry">
            <mxPoint x="400" y="610" as="sourcePoint" />
            <mxPoint x="450" y="560" as="targetPoint" />
          </mxGeometry>
        </mxCell>
        <mxCell id="yOSe1C2ClAY5vTmFZUbN-18" style="edgeStyle=orthogonalEdgeStyle;rounded=0;orthogonalLoop=1;jettySize=auto;html=1;" edge="1" parent="1" source="yOSe1C2ClAY5vTmFZUbN-15" target="yOSe1C2ClAY5vTmFZUbN-17">
          <mxGeometry relative="1" as="geometry" />
        </mxCell>
        <mxCell id="yOSe1C2ClAY5vTmFZUbN-15" value="Availability for retrieval" style="rounded=0;whiteSpace=wrap;html=1;" vertex="1" parent="1">
          <mxGeometry x="270" y="780" width="120" height="60" as="geometry" />
        </mxCell>
        <mxCell id="yOSe1C2ClAY5vTmFZUbN-16" value="" style="endArrow=classic;html=1;rounded=0;entryX=0.5;entryY=0;entryDx=0;entryDy=0;exitX=0.417;exitY=1;exitDx=0;exitDy=0;exitPerimeter=0;" edge="1" parent="1" source="yOSe1C2ClAY5vTmFZUbN-13" target="yOSe1C2ClAY5vTmFZUbN-15">
          <mxGeometry width="50" height="50" relative="1" as="geometry">
            <mxPoint x="400" y="710" as="sourcePoint" />
            <mxPoint x="450" y="660" as="targetPoint" />
          </mxGeometry>
        </mxCell>
        <mxCell id="yOSe1C2ClAY5vTmFZUbN-17" value="END" style="ellipse;whiteSpace=wrap;html=1;aspect=fixed;" vertex="1" parent="1">
          <mxGeometry x="470" y="770" width="80" height="80" as="geometry" />
        </mxCell>
      </root>
    </mxGraphModel>
  </diagram>
</mxfile>
